<svg width="32" height="32" viewBox="0 0 32 32" fill="none" xmlns="http://www.w3.org/2000/svg">
<rect width="32" height="32" rx="10" fill="#E9E9E9"/>
<path d="M19.8811 18.0218L21.0822 18.5534C21.9979 18.959 22.5647 19.6614 22.5647 20.3832C22.5647 21.0487 22.0962 21.5338 21.8167 21.7647C21.1384 22.2843 20.3054 22.5579 19.4532 22.5408H11.6106C13.444 20.9381 15.5994 19.318 17.4867 18.5942L17.9976 18.4895L15.2774 17.1836C10.5754 19.3994 6.19336 24.7742 6.19336 24.7742H19.4493C22.3873 24.7742 24.774 22.8106 24.774 20.3832C24.774 18.7126 23.6404 17.2573 21.9709 16.5161L17.6063 14.5758C15.7189 13.8443 13.444 12.0844 11.6106 10.4759H19.4493C20.3018 10.4634 21.1335 10.7418 21.809 11.2656C22.0885 11.4965 22.5569 11.9835 22.5569 12.649C22.5569 13.3708 21.9902 14.0732 21.0744 14.4788L20.5539 14.5991L22.9657 15.8447C24.1822 15.0415 24.7682 14.0344 24.7682 12.649C24.774 10.2236 22.3873 8.25806 19.4493 8.25806H6.19336C6.19336 8.25806 11.8863 14.4089 16.7079 16.551L19.8811 18.0218Z" fill="#6A78C1"/>
</svg>
