<svg width="14" height="15" viewBox="0 0 14 15" fill="none" xmlns="http://www.w3.org/2000/svg">
<path d="M12.3375 2.32333C12.1146 2.09616 11.832 1.93671 11.5223 1.86342C11.2126 1.79013 10.8885 1.80599 10.5875 1.90917L2.33332 4.66833C2.00042 4.7773 1.70956 4.98692 1.50088 5.26825C1.2922 5.54959 1.176 5.88876 1.16831 6.23896C1.16063 6.58916 1.26185 6.9331 1.45799 7.22332C1.65413 7.51353 1.93552 7.7357 2.26332 7.85917L5.31999 9.02583C5.38959 9.05245 5.45296 9.09312 5.50616 9.14531C5.55935 9.19749 5.60122 9.26008 5.62915 9.32917L6.79582 12.3917C6.91458 12.7148 7.13008 12.9935 7.41297 13.1898C7.69586 13.386 8.03237 13.4903 8.37665 13.4883H8.41749C8.76808 13.482 9.10789 13.366 9.38929 13.1568C9.67069 12.9476 9.87957 12.6556 9.98666 12.3217L12.7458 4.05583C12.8462 3.75771 12.8611 3.43746 12.7889 3.1313C12.7168 2.82513 12.5604 2.54526 12.3375 2.32333ZM11.6667 3.68833L8.87832 11.96C8.84594 12.0647 8.78092 12.1563 8.69275 12.2213C8.60458 12.2864 8.4979 12.3216 8.38832 12.3217C8.27939 12.3235 8.17249 12.292 8.08183 12.2316C7.99118 12.1712 7.92107 12.0846 7.88082 11.9833L6.71415 8.92083C6.62957 8.69831 6.49913 8.49606 6.3313 8.32722C6.16347 8.15839 5.96201 8.02674 5.73999 7.94083L2.67749 6.77417C2.57418 6.73631 2.48537 6.66695 2.42361 6.57588C2.36186 6.48482 2.33027 6.37665 2.33332 6.26667C2.33341 6.15708 2.36856 6.05041 2.43364 5.96224C2.49872 5.87407 2.5903 5.80904 2.69499 5.77667L10.9667 3.0175C11.0616 2.97879 11.1658 2.96842 11.2665 2.98765C11.3672 3.00687 11.4602 3.05486 11.5343 3.12582C11.6083 3.19677 11.6602 3.28766 11.6837 3.38749C11.7072 3.48731 11.7013 3.5918 11.6667 3.68833Z" fill="white"/>
</svg>
