<svg width="132" height="36" viewBox="0 0 132 36" fill="none" xmlns="http://www.w3.org/2000/svg">
<path d="M32.905 33.12V0H2.82043V33.12H0V36H35.7255V33.12H32.905Z" fill="#6B4A36"/>
<path d="M32.905 0L10.3416 2.87999V31.68L32.905 34.56" fill="#F6CA9E"/>
<path d="M17.3926 14.4H14.5722V20.16H17.3926V14.4Z" fill="#67381A"/>
<path d="M32.905 0L21.6233 1.44003V33.12L32.905 34.56V0Z" fill="#AE7940"/>
<path d="M43.8358 25.6456C42.2828 25.6456 40.9598 25.3195 39.8669 24.6675C38.774 24.0009 37.94 23.0808 37.3648 21.907C36.7896 20.7188 36.502 19.3349 36.502 17.7555C36.502 16.5817 36.6602 15.5167 36.9765 14.5603C37.3073 13.5894 37.7818 12.7562 38.4001 12.0607C39.0329 11.3651 39.8022 10.8362 40.7081 10.474C41.6141 10.0972 42.6423 9.90883 43.7927 9.90883C44.9575 9.90883 46 10.0972 46.9203 10.474C47.8407 10.8507 48.6028 11.4158 49.2068 12.1694C49.8251 12.9084 50.2277 13.8358 50.4147 14.9515H47.287C47.172 14.4734 46.9635 14.0821 46.6615 13.7778C46.3595 13.459 45.9784 13.2199 45.5183 13.0605C45.0725 12.9011 44.562 12.8214 43.9868 12.8214C43.1959 12.8214 42.5272 12.9591 41.9808 13.2344C41.4343 13.5097 40.9886 13.8865 40.6434 14.3647C40.3127 14.8284 40.0682 15.3645 39.9101 15.9731C39.7663 16.5672 39.6944 17.1831 39.6944 17.8207C39.6944 18.6901 39.8382 19.5016 40.1258 20.2551C40.4134 20.9941 40.8663 21.5955 41.4847 22.0592C42.103 22.5084 42.9227 22.733 43.9437 22.733C44.6195 22.733 45.2163 22.6315 45.734 22.4287C46.266 22.2113 46.6903 21.8925 47.0066 21.4723C47.3374 21.0376 47.5243 20.5159 47.5674 19.9073H43.4044V17.2338H50.7382V18.0815C50.7382 19.6465 50.4794 20.9941 49.9617 22.1244C49.444 23.2546 48.6747 24.1241 47.6537 24.7327C46.6327 25.3413 45.3601 25.6456 43.8358 25.6456Z" fill="#67381A"/>
<path d="M60.0601 25.6456C58.4926 25.6456 57.1409 25.3123 56.0049 24.6457C54.8832 23.9792 54.0204 23.059 53.4165 21.8853C52.8269 20.6971 52.5321 19.3349 52.5321 17.7989C52.5321 16.234 52.8341 14.8574 53.438 13.6691C54.0564 12.4809 54.9336 11.5608 56.0696 10.9087C57.2056 10.2421 58.5573 9.90883 60.1248 9.90883C61.6778 9.90883 63.0152 10.2349 64.1368 10.8869C65.2584 11.539 66.1212 12.4519 66.7252 13.6257C67.3436 14.7994 67.6527 16.1688 67.6527 17.7337C67.6527 19.2697 67.3436 20.6391 66.7252 21.8418C66.1212 23.03 65.2513 23.9647 64.1152 24.6457C62.9936 25.3123 61.6419 25.6456 60.0601 25.6456ZM60.1032 22.733C61.1386 22.733 61.9798 22.4939 62.6269 22.0157C63.274 21.5375 63.7413 20.9217 64.029 20.1681C64.3309 19.4146 64.4819 18.6249 64.4819 17.7989C64.4819 17.1903 64.3956 16.589 64.2231 15.9949C64.0649 15.4008 63.8132 14.8646 63.4681 14.3864C63.123 13.9082 62.67 13.5315 62.1092 13.2562C61.5484 12.9663 60.8725 12.8214 60.0816 12.8214C59.0606 12.8214 58.2266 13.0605 57.5795 13.5387C56.9324 14.0024 56.4507 14.611 56.1343 15.3645C55.8323 16.118 55.6813 16.9223 55.6813 17.7772C55.6813 18.6322 55.8323 19.4364 56.1343 20.1899C56.4507 20.9434 56.9324 21.5592 57.5795 22.0374C58.241 22.5011 59.0822 22.733 60.1032 22.733Z" fill="#67381A"/>
<path d="M70.0564 25.4717V10.0827H75.8157C77.4118 10.0827 78.7708 10.387 79.8924 10.9956C81.0284 11.6042 81.8912 12.4809 82.4808 13.6257C83.0848 14.7704 83.3868 16.1688 83.3868 17.8207C83.3868 19.4436 83.092 20.8275 82.5024 21.9722C81.9272 23.1025 81.0788 23.9719 79.9571 24.5805C78.8355 25.1746 77.4622 25.4717 75.8372 25.4717H70.0564ZM73.141 22.6026H75.8157C76.8798 22.6026 77.7354 22.3997 78.3825 21.994C79.0296 21.5882 79.5041 21.0231 79.8061 20.2986C80.1081 19.574 80.2591 18.7408 80.2591 17.7989C80.2591 16.886 80.1081 16.0673 79.8061 15.3428C79.5185 14.6038 79.044 14.0242 78.3825 13.6039C77.7354 13.1837 76.8582 12.9736 75.7509 12.9736H73.141V22.6026Z" fill="#67381A"/>
<path d="M92.8154 25.6456C91.248 25.6456 89.8963 25.3123 88.7602 24.6457C87.6386 23.9792 86.7758 23.059 86.1718 21.8853C85.5822 20.6971 85.2875 19.3349 85.2875 17.7989C85.2875 16.234 85.5894 14.8574 86.1934 13.6691C86.8117 12.4809 87.6889 11.5608 88.8249 10.9087C89.961 10.2421 91.3127 9.90883 92.8801 9.90883C94.4332 9.90883 95.7705 10.2349 96.8922 10.8869C98.0138 11.539 98.8766 12.4519 99.4806 13.6257C100.099 14.7994 100.408 16.1688 100.408 17.7337C100.408 19.2697 100.099 20.6391 99.4806 21.8418C98.8766 23.03 98.0066 23.9647 96.8706 24.6457C95.7489 25.3123 94.3972 25.6456 92.8154 25.6456ZM92.8586 22.733C93.8939 22.733 94.7352 22.4939 95.3823 22.0157C96.0294 21.5375 96.4967 20.9217 96.7843 20.1681C97.0863 19.4146 97.2373 18.6249 97.2373 17.7989C97.2373 17.1903 97.151 16.589 96.9784 15.9949C96.8203 15.4008 96.5686 14.8646 96.2235 14.3864C95.8784 13.9082 95.4254 13.5315 94.8646 13.2562C94.3037 12.9663 93.6279 12.8214 92.837 12.8214C91.816 12.8214 90.982 13.0605 90.3349 13.5387C89.6878 14.0024 89.206 14.611 88.8897 15.3645C88.5877 16.118 88.4367 16.9223 88.4367 17.7772C88.4367 18.6322 88.5877 19.4364 88.8897 20.1899C89.206 20.9434 89.6878 21.5592 90.3349 22.0374C90.9963 22.5011 91.8376 22.733 92.8586 22.733Z" fill="#67381A"/>
<path d="M109.73 25.6456C108.163 25.6456 106.811 25.3123 105.675 24.6457C104.553 23.9792 103.691 23.059 103.087 21.8853C102.497 20.6971 102.202 19.3349 102.202 17.7989C102.202 16.234 102.504 14.8574 103.108 13.6691C103.727 12.4809 104.604 11.5608 105.74 10.9087C106.876 10.2421 108.228 9.90883 109.795 9.90883C111.348 9.90883 112.685 10.2349 113.807 10.8869C114.929 11.539 115.791 12.4519 116.395 13.6257C117.014 14.7994 117.323 16.1688 117.323 17.7337C117.323 19.2697 117.014 20.6391 116.395 21.8418C115.791 23.03 114.921 23.9647 113.785 24.6457C112.664 25.3123 111.312 25.6456 109.73 25.6456ZM109.773 22.733C110.809 22.733 111.65 22.4939 112.297 22.0157C112.944 21.5375 113.412 20.9217 113.699 20.1681C114.001 19.4146 114.152 18.6249 114.152 17.7989C114.152 17.1903 114.066 16.589 113.893 15.9949C113.735 15.4008 113.483 14.8646 113.138 14.3864C112.793 13.9082 112.34 13.5315 111.779 13.2562C111.219 12.9663 110.543 12.8214 109.752 12.8214C108.731 12.8214 107.897 13.0605 107.25 13.5387C106.603 14.0024 106.121 14.611 105.804 15.3645C105.503 16.118 105.352 16.9223 105.352 17.7772C105.352 18.6322 105.503 19.4364 105.804 20.1899C106.121 20.9434 106.603 21.5592 107.25 22.0374C107.911 22.5011 108.752 22.733 109.773 22.733Z" fill="#67381A"/>
<path d="M119.727 25.4717V10.0827H125.874C126.636 10.0827 127.362 10.1624 128.053 10.3218C128.757 10.4667 129.39 10.7203 129.951 11.0826C130.512 11.4448 130.95 11.952 131.267 12.6041C131.597 13.2417 131.763 14.0604 131.763 15.0602C131.763 15.7992 131.641 16.4658 131.396 17.0599C131.152 17.654 130.792 18.1612 130.318 18.5814C129.843 19.0017 129.275 19.3277 128.613 19.5595L132 25.4717H128.527L125.551 20.0595H122.811V25.4717H119.727ZM122.811 17.299H125.658C126.104 17.299 126.507 17.2628 126.866 17.1903C127.24 17.1034 127.557 16.973 127.815 16.7991C128.089 16.6252 128.297 16.3934 128.441 16.1035C128.599 15.8137 128.678 15.4587 128.678 15.0385C128.693 14.5023 128.578 14.0894 128.333 13.7995C128.103 13.4952 127.772 13.2851 127.341 13.1692C126.924 13.0388 126.428 12.9736 125.853 12.9736H122.811V17.299Z" fill="#67381A"/>
</svg>
